<svg xmlns="http://www.w3.org/2000/svg" viewBox="0 0 400 400"><path d="M399.72,4.75a7.71,7.71,0,0,0-5-3.86A28.44,28.44,0,0,0,381-.55,50.65,50.65,0,0,0,367.2,3.3a80,80,0,0,0-25.53,19A184.25,184.25,0,0,0,321.8,48.59a297.94,297.94,0,0,0-31.43,66.24q-11.78,35.4-20.08,71.53-4.8,17.34-7.85,34.68c-3.79-.64-7.42-1.12-10.92-1.44-2-.18-3.94-.53-5.91-.81.49-2.55,1-5.1,1.38-7.67s.63-5.81.81-9.69a56.94,56.94,0,0,0-.54-11.17,28.35,28.35,0,0,0-3.24-9.69,10.1,10.1,0,0,0-7.3-5.22,13.7,13.7,0,0,0-6.89.6,28.63,28.63,0,0,0-6.48,3.28,39.29,39.29,0,0,0-5.81,4.77c-1.8,1.79-3.5,3.47-5.13,5.06a124.74,124.74,0,0,0-13.77,16.85c-2.72,4-5.27,8-7.76,12.13-4.23.41-8.46.91-12.69,1.56l-.81.13c.51-2.23,1-4.43,1.54-6.67q2.43-10.58,5.13-21,7.56-15.19,14.72-30.25t14.46-30.55q5.11-11,10-21.76t9.45-22.06q4.07-10.42,8-20.87A153,153,0,0,0,247,44.79a52.27,52.27,0,0,0,1.21-7.45,27.45,27.45,0,0,0-.27-7.75,11.91,11.91,0,0,0-2.84-6q-2.16-2.39-6.47-2.39A16.76,16.76,0,0,0,230,23.63a37.37,37.37,0,0,0-7.7,6.11,70,70,0,0,0-6.75,8.05q-3.11,4.32-5.54,7.9a114.41,114.41,0,0,0-10.53,19.52q-4.32,10.29-8.1,20.72-4,11.32-7.84,22.95t-7.29,23.25q-6.75,23.25-12.69,46.35t-11.34,46.31c-3.44.9-6.85,1.88-10.23,3q6.1-24.09,11.13-48.65c2.32-11.39,4.31-22.77,6.15-34.16q6.09-24.6,14.19-48.7,6.1-16.86,13.32-34a146.27,146.27,0,0,1,17.67-31.08A135.09,135.09,0,0,1,214.47,20.4a42.28,42.28,0,0,1,11.34-7.94,17.82,17.82,0,0,1,7.86-1.93,27.48,27.48,0,0,0,7.42-1c3.2-1.27,4.29-2.89,3.28-4.81a7.73,7.73,0,0,0-5-3.86A28.46,28.46,0,0,0,225.6-.55,50.55,50.55,0,0,0,211.85,3.3a80,80,0,0,0-25.54,19c-1.32,1.46-2.58,3-3.85,4.44l-.34.14-.68,1a184.26,184.26,0,0,0-15,20.64A297.5,297.5,0,0,0,135,114.83q-11.79,35.4-20.08,71.53-4.81,17.34-7.86,34.68l-1.31,7.23L102.15,246c-5.32,3.26-10.56,6.56-15.63,9.95q-8.3,5.55-16.59,12.28a314.41,314.41,0,0,0-25.75,23.61,211.26,211.26,0,0,0-22.27,27q-3.91,5.78-8.51,13A112.69,112.69,0,0,0,5.33,347,65.7,65.7,0,0,0,.52,363.16a32.73,32.73,0,0,0,1.31,15.89q.87,2.42,5.68,8.44c3.2,4,6.4,6.66,9.6,7.94l1.31,1A26.11,26.11,0,0,0,32.61,399a47.36,47.36,0,0,0,14-3.61A67.43,67.43,0,0,0,59.67,388a128.47,128.47,0,0,0,11.57-9.4,160.72,160.72,0,0,0,22.05-27.21,254.74,254.74,0,0,0,17.46-31.8q7.62-16.62,13.75-34c.18-.52.34-1,.52-1.56q2.39-6.68,4.54-13.37c.18-.56.34-1.14.52-1.7,1.07-3.34,2-6.65,3-10,.26-.88.54-1.74.79-2.62.49-1.66,1-3.34,1.51-5q.87-2.88,1.53-5.78c.21-1,.5-2.05.75-3.08s.52-2.13.79-3.18l5.66-1.93c1.77-.54,3.57-1,5.35-1.49-.31,1.3-.65,2.68-1,4q-1.77,7.31-3.11,15.05-1.89,10.14-3.38,20.12t-3.38,20.12q-1.6,8-2.7,16.39a88.06,88.06,0,0,0-.54,16.7c.19,2.18,1,3.18,2.57,3a5.76,5.76,0,0,0,3.65-1.79,28.86,28.86,0,0,0,2.56-3.28c.81-1.19,1.58-2.28,2.3-3.28a51.44,51.44,0,0,0,2.84-5.36c.8-1.79,1.66-3.58,2.56-5.37l.27-.89a25.38,25.38,0,0,0,1.89-3.88,37.42,37.42,0,0,0,1.35-4.17l1.35-3.58.27-.59q3-7.76,6.35-15.36t6.89-15.05q7-15.19,14.72-29.81c2-3.78,4.12-7.49,6.27-11.18,3.56-.4,7.11-.81,10.71-1.08,6-.43,11.94-.62,17.88-.69l-1,2.52q-3.24,8.66-6.35,17.59T207,264.18q-3,10.44-5.27,21.16A83.57,83.57,0,0,0,200,307.1a41.45,41.45,0,0,0,1.21,10,30.14,30.14,0,0,0,3.65,8.79,19.55,19.55,0,0,0,6.21,6.26,13.88,13.88,0,0,0,9.19,1.79,22.82,22.82,0,0,0,9.18-2.53,41.58,41.58,0,0,0,8.1-5.52c1.17-1,2.31-2.09,3.44-3.21-1.09,4.18-2.23,8.37-3.42,12.54a207.92,207.92,0,0,1-11.78,30.36c-.29.64-1,2-2,4.09s-2.19,4.26-3.5,6.5a34.76,34.76,0,0,1-4.14,5.79c-1.46,1.6-2.62,2.24-3.5,1.92-2.62-.65-4.44-.08-5.45,1.69a7.42,7.42,0,0,0-.88,5.54,7.73,7.73,0,0,0,2.84,4.57q2.17,1.69,6.11-1.2a44.4,44.4,0,0,0,6.55-5.54q3-3.14,6.11-7a174.75,174.75,0,0,0,19.21-26.74q8.28-14.2,15.71-29.15a442.1,442.1,0,0,0,22.05-55.39A544,544,0,0,0,300,212.37q5.67-29.37,12.44-58.52t16.37-57.57q6.1-16.86,13.31-34a145.87,145.87,0,0,1,17.68-31.08,136.84,136.84,0,0,1,10-10.84,42.17,42.17,0,0,1,11.35-7.94A17.78,17.78,0,0,1,389,10.53a27.48,27.48,0,0,0,7.42-1C399.65,8.29,400.74,6.67,399.72,4.75ZM202.42,124.68Q210,99.35,219.16,74.3a200.82,200.82,0,0,0,6.62-19.52,78.64,78.64,0,0,1,8-18.63,36.86,36.86,0,0,1,2.7-4q1.89-2.54,3.79-1.94a2.52,2.52,0,0,1,2,2.23,17.55,17.55,0,0,1,.27,4.48,42.87,42.87,0,0,1-.54,4.91c-.27,1.6-.5,2.79-.68,3.58a158.73,158.73,0,0,1-5.93,22.21q-3.8,10.88-7.84,21.61-4.59,11.33-9.18,22.2t-9.73,21.91q-5.13,11-10.13,21.76t-10.4,21.17Q194.85,150,202.42,124.68Zm-104.28,141c-2.51,8.83-5,17.66-7.69,26.39q-5.24,17.11-12.23,34-7,15.44-16.14,31.32T38.94,382a32.26,32.26,0,0,1-3.71,1.44c-1.9.64-3.93,1.28-6.11,1.93a30.26,30.26,0,0,1-5.9,1.44c-3,.22-4.93.23-6.43-.54-.31-.15-1.42-.9-1.42-.9q-6.55-4.83-7-12.05a41,41,0,0,1,2.18-17.58,94.35,94.35,0,0,1,7.86-17.1,121.91,121.91,0,0,1,10.7-15.42q5.88-7.23,10.69-13a259.33,259.33,0,0,1,59.86-52Zm79.16-24q-4.61,8.51-8.92,17.15l5.68-24.75L175,230c3.23-.58,6.48-1.09,9.74-1.55C182.17,232.89,179.66,237.3,177.3,241.67ZM209.62,217c-4.05.06-8.1.27-12.15.55,1.47-2.33,2.88-4.69,4.41-7q4.05-5.67,8.51-11.48a54.3,54.3,0,0,1,9.86-10,11.4,11.4,0,0,1,2.56-1.19c1.53-.6,3.11-1.19,4.73-1.79a13.11,13.11,0,0,1,4.45-.89c1.36,0,2,.5,2,1.49a43.64,43.64,0,0,1-3.65,12.52q-2.84,6.26-5,12.22l-2.17,5.69C218.68,217,214.15,216.88,209.62,217Zm33.31,95.82a47.44,47.44,0,0,1-7.69,6.85,26.42,26.42,0,0,1-9.05,4.18,16.37,16.37,0,0,1-7.29-.45q-3.53-1-3.25-6.11a32.92,32.92,0,0,1,1.49-9.84q1.49-4.77,3.11-9.24,3.51-11,7.29-21.61t7.56-21.31q3.78-10.74,7-21.77c.66-2.28,1.19-4.58,1.76-6.89,5.76.41,11.51.94,17.24,1.69l-11.79,57.81q-2.52,12.9-5.66,25.8C243.43,312.17,243.19,312.48,242.93,312.77Z" fill="#231f20"/></svg>